<?xml version="1.0" standalone="no"?>
<!DOCTYPE svg PUBLIC "-//W3C//DTD SVG 20010904//EN"
 "http://www.w3.org/TR/2001/REC-SVG-20010904/DTD/svg10.dtd">
<svg version="1.0" xmlns="http://www.w3.org/2000/svg"
 width="565.000000pt" height="377.000000pt" viewBox="0 0 565.000000 377.000000"
 preserveAspectRatio="xMidYMid meet">
<metadata>
Created by potrace 1.16, written by Peter Selinger 2001-2019
</metadata>
<g transform="translate(0.000000,377.000000) scale(0.100000,-0.100000)"
fill="#000000" stroke="none">
<path d="M0 1885 l0 -1885 2825 0 2825 0 0 1885 0 1885 -2825 0 -2825 0 0
-1885z m1583 1584 c30 -8 42 -18 53 -44 8 -19 14 -46 14 -60 0 -24 -3 -25 -55
-25 -55 0 -55 0 -55 31 0 20 -4 29 -12 27 -26 -9 -14 -52 22 -76 73 -48 97
-78 104 -129 8 -66 -4 -104 -44 -130 -59 -41 -164 -22 -189 33 -6 14 -11 45
-11 69 l0 45 50 0 c52 0 55 -4 51 -51 -1 -9 5 -21 13 -28 12 -10 16 -8 21 8 8
27 -8 55 -47 82 -73 51 -88 74 -88 138 0 103 60 142 173 110z m2587 -2 c39
-14 60 -46 60 -95 l0 -33 -52 3 c-39 2 -53 7 -54 18 -2 33 -4 40 -14 40 -5 0
-10 -13 -10 -30 0 -25 9 -35 56 -65 61 -40 84 -78 84 -145 0 -88 -56 -130
-153 -116 -61 9 -87 39 -94 110 l-6 56 53 0 52 0 -40 33 c-22 17 -45 42 -51
55 -14 29 -14 92 -1 127 18 47 97 67 170 42z m-2379 -170 c-2 -134 1 -168 11
-165 10 4 14 46 16 171 l2 167 56 0 55 0 -3 -184 c-3 -179 -4 -185 -27 -210
-45 -48 -142 -46 -193 4 l-28 28 0 182 0 181 56 -3 56 -3 -1 -168z m390 144
c15 -18 19 -39 19 -98 0 -41 -5 -83 -10 -93 -11 -20 -83 -45 -100 -35 -6 4
-10 -26 -10 -79 l0 -86 -60 0 -60 0 0 53 c0 28 3 123 7 210 l6 159 94 -4 c85
-3 97 -5 114 -27z m234 15 c40 -17 50 -51 43 -148 -5 -69 -19 -85 -80 -95
l-38 -6 0 -78 0 -79 -60 0 -60 0 0 53 c0 28 3 123 7 210 l6 157 74 0 c41 0 89
-6 108 -14z m185 -151 l0 -165 30 0 c29 0 30 -2 30 -45 l0 -45 -90 0 -90 0 0
210 0 210 60 0 60 0 0 -165z m260 120 c0 -45 0 -45 -35 -45 -33 0 -35 -2 -35
-35 0 -33 2 -35 35 -35 35 0 35 0 35 -45 0 -45 0 -45 -35 -45 -34 0 -35 -1
-35 -40 l0 -40 40 0 40 0 0 -45 0 -45 -95 0 -95 0 0 210 0 210 90 0 90 0 0
-45z m185 -2 c3 -27 9 -61 14 -78 7 -25 9 -17 16 48 l7 77 74 0 74 0 0 -210 0
-210 -50 0 -50 0 -1 103 c-1 98 -2 100 -10 42 -22 -161 -16 -145 -58 -145
l-38 0 -7 68 c-14 131 -24 146 -25 35 l-1 -103 -50 0 -50 0 0 53 c0 28 3 123
7 210 l6 157 68 0 68 0 6 -47z m405 2 c0 -45 0 -45 -35 -45 -33 0 -35 -2 -35
-35 0 -32 2 -35 30 -35 29 0 30 -2 30 -45 0 -43 -1 -45 -30 -45 -28 0 -30 -2
-30 -40 l0 -40 40 0 40 0 0 -45 0 -45 -100 0 -100 0 0 53 c0 28 3 123 7 210
l6 157 89 0 88 0 0 -45z m150 -32 l25 -78 3 78 3 77 43 0 c27 0 45 -5 47 -12
2 -7 3 -102 1 -210 l-3 -198 -48 0 -48 0 -21 68 -21 67 0 -67 -1 -68 -50 0
-50 0 0 210 0 210 48 0 48 0 24 -77z m380 32 c0 -43 -1 -45 -30 -45 l-30 0 0
-165 0 -165 -62 0 -61 0 7 165 6 165 -35 0 c-35 0 -35 0 -35 45 l0 45 120 0
120 0 0 -45z m-1920 -464 c6 -13 10 -149 10 -375 l0 -356 75 0 75 0 0 30 c0
16 16 65 35 109 19 43 35 83 35 88 0 4 5 25 11 46 l10 37 129 0 130 0 0 29 c0
34 13 41 83 41 29 0 76 3 105 6 51 7 52 8 52 39 0 55 12 59 192 52 168 -6 178
-9 178 -53 0 -19 7 -21 102 -28 56 -3 108 -12 116 -19 12 -10 14 -32 8 -128
-5 -87 -3 -118 5 -121 7 -2 14 -31 17 -66 l4 -62 74 0 74 0 0 359 c0 198 3
366 6 375 5 14 39 16 275 16 314 0 289 11 289 -129 l0 -91 123 0 c82 0 127 -4
135 -12 9 -9 12 -81 12 -264 l0 -251 41 -6 c78 -10 123 -83 95 -151 -17 -41
-49 -65 -98 -73 l-38 -6 0 -216 c0 -156 -3 -220 -12 -229 -8 -8 -53 -12 -135
-12 l-123 0 0 -126 c0 -69 -5 -134 -10 -145 -10 -18 -24 -19 -273 -19 -191 0
-266 3 -275 12 -9 9 -12 106 -12 375 l0 363 -71 0 -70 0 7 -114 7 -115 -154
-160 c-85 -89 -160 -161 -166 -161 -9 0 -11 -13 -7 -42 16 -131 52 -572 48
-583 -3 -7 -15 -16 -27 -19 -12 -3 -169 -6 -349 -6 -384 0 -363 -6 -354 99 3
36 10 190 16 341 6 151 12 294 15 318 5 41 3 44 -59 102 -34 33 -93 84 -129
112 l-67 53 0 87 0 88 -75 0 -75 0 0 -356 c0 -226 -4 -362 -10 -375 -10 -18
-24 -19 -270 -19 -142 0 -265 3 -274 6 -14 5 -16 28 -16 145 l0 139 -116 0
c-63 0 -124 5 -135 10 -18 10 -19 23 -19 230 l0 220 -25 0 c-68 0 -125 53
-125 115 0 62 55 115 120 115 l30 0 0 255 c-1 140 2 260 5 265 4 6 60 10 136
10 l129 0 0 94 c0 52 3 101 6 110 5 14 39 16 275 16 255 0 269 -1 279 -19z
m465 -2216 c38 -15 55 -46 55 -101 l0 -34 -55 0 c-54 0 -55 0 -55 30 0 17 -4
30 -10 30 -5 0 -10 -11 -10 -25 0 -19 13 -33 56 -60 37 -24 60 -47 70 -70 16
-40 18 -102 4 -140 -19 -49 -115 -70 -185 -41 -40 17 -50 35 -60 104 l-7 52
58 0 58 0 -47 33 c-66 46 -85 111 -51 182 25 52 107 71 179 40z m535 0 c55
-28 60 -46 60 -205 0 -159 -5 -177 -60 -205 -35 -18 -96 -19 -129 -2 -13 6
-33 24 -45 40 -18 25 -20 40 -18 168 2 78 7 150 13 161 27 51 120 73 179 43z
m-229 -24 c15 -18 19 -39 19 -102 0 -92 -14 -115 -80 -125 l-40 -7 0 -78 0
-79 -60 0 -60 0 0 211 0 211 101 -4 c92 -3 103 -5 120 -27z m549 -15 c0 -43
-1 -45 -32 -48 l-33 -3 0 -163 0 -162 -63 0 -63 0 3 163 3 162 -32 3 c-32 3
-33 5 -33 48 l0 44 125 0 125 0 0 -44z"/>
<path d="M1540 2933 c-1 -5 -2 -53 -3 -108 l-2 -100 -137 -3 -138 -3 0 -264 0
-265 -41 0 c-41 0 -78 -14 -91 -34 -4 -6 -8 -25 -8 -43 0 -44 38 -73 96 -73
l44 0 0 -230 0 -230 120 0 120 0 1 108 c0 59 7 253 13 432 l13 325 2 -205 c1
-113 2 -261 1 -330 -1 -69 2 -236 6 -372 l7 -248 243 0 244 0 0 375 0 375 115
0 115 0 0 -99 0 -99 63 -51 c34 -27 91 -77 126 -110 l65 -59 -12 -299 c-7
-164 -16 -340 -19 -390 l-6 -93 332 0 c182 0 331 3 331 8 0 12 -49 534 -56
591 -5 51 -5 54 15 48 19 -5 88 59 300 280 11 12 13 40 7 144 l-6 129 110 0
110 0 0 -375 0 -375 245 0 245 0 1 658 2 657 18 -485 c9 -267 18 -497 18 -512
l1 -28 115 0 115 0 0 230 0 230 50 0 c86 0 127 64 79 124 -18 22 -28 26 -75
26 l-54 0 0 265 0 265 -135 0 -135 0 0 110 0 110 -245 -2 -246 -3 -2 -370 -2
-370 -110 0 -110 0 -3 65 c-2 44 -8 67 -18 73 -12 7 -13 28 -8 126 l7 118 -24
6 c-13 4 -49 7 -79 7 -30 0 -72 3 -92 6 -35 6 -38 9 -38 40 l0 34 -144 0 -145
0 -3 -42 c-3 -42 -4 -43 -43 -45 -22 -2 -77 -5 -122 -9 l-83 -6 0 -34 0 -33
-132 -3 -133 -3 -3 -25 c-2 -14 -18 -56 -35 -95 -17 -38 -34 -95 -37 -125 l-5
-55 -112 -3 -113 -3 0 376 0 375 -245 0 c-135 0 -245 -3 -245 -7z m410 -203
c0 -80 -4 -130 -10 -130 -5 0 -11 -26 -12 -57 -1 -33 -5 -9 -8 57 l-6 115 -4
-120 -4 -120 -6 120 -6 120 -4 -125 -4 -125 -6 130 -6 130 -4 -125 c-3 -119
-4 -121 -10 -50 l-6 75 -9 -55 -10 -55 -6 85 -5 85 -4 -115 -4 -115 -6 145 -6
145 -4 -150 -4 -150 -6 155 -6 155 -4 -155 -4 -155 -6 105 c-3 58 -7 82 -8 53
-3 -73 -22 -78 -24 -6 -1 37 -4 17 -8 -52 l-6 -110 -4 165 -4 165 -6 -165 -6
-165 -4 155 -4 155 -6 -150 -6 -150 -4 115 -4 115 -5 -80 -6 -80 -10 60 -10
60 -6 -85 c-5 -82 -5 -81 -9 50 l-4 135 -6 -120 -6 -120 -2 176 c-1 97 1 179
5 182 3 4 80 7 170 7 l163 0 0 -130z m2078 -42 c-1 -142 -3 -158 -8 -88 l-6
85 -4 -115 -4 -115 -6 145 -6 145 -4 -150 -4 -150 -6 150 -6 150 -4 -150 -4
-150 -6 105 c-3 58 -7 82 -8 53 -3 -73 -22 -78 -24 -6 -1 37 -4 17 -8 -52 l-6
-110 -4 160 -4 160 -6 -160 -6 -160 -4 160 -4 160 -6 -155 -6 -155 -4 115 c-2
76 -5 96 -7 57 -4 -60 -22 -70 -25 -14 -1 18 -5 -6 -8 -53 -6 -84 -6 -84 -10
50 l-4 135 -6 -135 -6 -135 -4 130 -4 130 -6 -125 -6 -125 -4 115 -4 115 -6
-105 c-3 -59 -7 -82 -8 -52 -1 28 -6 52 -11 52 -6 0 -12 -24 -14 -52 -2 -33
-5 -11 -7 57 l-4 110 -6 -120 -6 -120 -4 120 c-3 114 -4 116 -10 50 -5 -59 -7
-48 -8 66 -1 75 1 139 5 142 3 4 80 7 170 7 l163 0 -2 -172z m-2528 -94 c0
-54 -4 -83 -10 -79 -6 4 -11 -35 -12 -107 l-2 -113 -6 85 c-6 83 -6 84 -10 25
-3 -57 -3 -58 -9 -20 l-7 40 -11 -35 -11 -35 -3 55 c-3 54 -3 54 -9 -20 l-6
-75 -4 95 -4 95 -6 -120 -6 -120 -4 145 -4 145 -6 -125 -6 -125 -4 130 -4 130
-6 -150 -6 -150 -4 140 -4 140 -6 -125 -6 -125 -4 140 -4 140 -6 -110 c-6
-110 -6 -110 -8 53 l-2 162 100 0 100 0 0 -86z m2839 4 c-1 -46 -4 -123 -8
-173 -7 -79 -8 -84 -11 -35 -1 30 -5 44 -7 30 -7 -39 -23 -48 -25 -15 -1 17
-4 5 -8 -25 -7 -54 -7 -53 -10 30 l-4 85 -6 -70 -6 -70 -4 95 -4 95 -6 -120
-6 -120 -4 135 -4 135 -6 -145 -6 -145 -4 120 -4 120 -6 -120 -6 -120 -4 145
-4 145 -6 -135 -6 -135 -4 120 -4 120 -6 -135 c-6 -134 -6 -133 -8 68 l-2 202
95 0 95 0 -1 -82z m-1273 -70 c-4 -45 -9 -84 -11 -86 -2 -2 -26 3 -52 12 -44
15 -49 15 -60 0 -16 -22 -27 -116 -19 -165 4 -23 15 -58 26 -79 l20 -38 -31
-7 c-17 -4 -33 -5 -36 -2 -2 3 -1 105 3 226 l7 221 80 0 80 0 -7 -82z m232 -3
c2 -1 2 -39 0 -83 l-3 -80 -80 25 c-44 14 -84 28 -88 32 -4 4 -5 32 -1 62 l6
54 82 -4 c44 -2 82 -4 84 -6z m-458 -100 l0 -94 -37 -7 c-97 -16 -102 -20 -30
-28 l67 -8 0 -69 0 -69 -90 0 -90 0 0 179 0 180 43 4 c23 2 63 4 90 5 l47 2 0
-95z m-242 -36 c-6 -55 -18 -69 -60 -69 -45 0 -41 -19 4 -22 l43 -3 3 -69 c3
-67 3 -68 -20 -63 -13 4 -46 12 -74 18 l-52 12 -8 51 c-8 50 -8 50 -12 14 -2
-27 -7 -35 -18 -31 -9 3 -14 -2 -14 -16 0 -16 -6 -21 -25 -21 -22 0 -25 4 -25
39 0 21 6 54 13 72 8 19 22 55 31 81 l17 47 62 4 c34 2 79 4 101 5 l39 2 -5
-51z m567 -54 c83 -26 153 -50 157 -53 3 -4 10 -86 13 -184 l8 -176 -92 -95
c-51 -52 -106 -101 -122 -107 -24 -10 -61 -10 -182 0 -84 6 -176 16 -206 21
-40 6 -60 5 -81 -6 -27 -14 -30 -13 -83 28 -31 23 -98 69 -151 102 l-95 60 0
58 -1 57 43 0 c33 0 218 -46 304 -75 9 -3 9 -12 -2 -39 -21 -50 -19 -55 10
-21 l24 30 -14 -55 c-22 -83 -18 -82 25 1 l39 76 68 7 c37 3 109 11 160 17 84
10 92 13 97 35 5 17 13 24 31 24 13 0 27 -4 30 -10 3 -5 11 -10 16 -10 6 0 -4
18 -21 40 l-32 40 38 0 38 0 -50 31 c-59 38 -104 75 -123 101 -31 45 -37 166
-8 155 7 -2 80 -26 162 -52z m-465 -868 l94 -23 22 -129 22 -130 1 70 c1 39 4
102 8 140 l6 70 42 -230 42 -230 6 70 c4 39 7 123 8 188 1 64 5 120 10 122 18
12 79 -40 84 -70 6 -38 45 -390 45 -410 0 -13 -27 -15 -175 -15 -96 0 -175 3
-175 7 0 14 -61 488 -64 498 -1 6 -6 -24 -10 -65 -4 -41 -21 -156 -39 -255
-30 -170 -33 -180 -55 -183 l-24 -4 6 199 c11 349 16 403 34 403 10 0 60 -11
112 -23z"/>
</g>
</svg>
